<mxfile host="app.diagrams.net" modified="2023-03-27T14:02:35.817Z" agent="Mozilla/5.0 (Windows NT 10.0; Win64; x64) AppleWebKit/537.36 (KHTML, like Gecko) Chrome/111.0.0.0 Safari/537.36" etag="psP68fO45AmMOupmKPlu" version="21.1.1" type="device">
  <diagram name="Page-1" id="2cc2dc42-3aac-f2a9-1cec-7a8b7cbee084">
    <mxGraphModel dx="3700" dy="1680" grid="1" gridSize="10" guides="1" tooltips="1" connect="1" arrows="1" fold="1" page="1" pageScale="1" pageWidth="1100" pageHeight="850" background="none" math="0" shadow="0">
      <root>
        <mxCell id="0" />
        <mxCell id="1" parent="0" />
        <mxCell id="eM8wZiDEQWay9FdF1tru-22" value="log in" style="strokeWidth=1;shadow=0;dashed=0;align=center;html=1;shape=mxgraph.mockup.containers.window;align=left;verticalAlign=top;spacingLeft=8;strokeColor2=#008cff;strokeColor3=#c4c4c4;fontColor=#666666;mainText=;fontSize=17;labelBackgroundColor=none;whiteSpace=wrap;" parent="1" vertex="1">
          <mxGeometry x="320" y="150" width="550" height="380" as="geometry" />
        </mxCell>
        <mxCell id="eM8wZiDEQWay9FdF1tru-24" value="********" style="strokeWidth=1;shadow=0;dashed=0;align=center;html=1;shape=mxgraph.mockup.forms.pwField;strokeColor=#999999;mainText=;align=left;fontColor=#666666;fontSize=17;spacingLeft=3;" parent="1" vertex="1">
          <mxGeometry x="570" y="256" width="150" height="30" as="geometry" />
        </mxCell>
        <mxCell id="eM8wZiDEQWay9FdF1tru-25" value="password:" style="strokeWidth=1;shadow=0;dashed=0;align=center;html=1;shape=mxgraph.mockup.forms.pwField;strokeColor=#999999;mainText=;align=left;fontColor=#666666;fontSize=17;spacingLeft=3;" parent="1" vertex="1">
          <mxGeometry x="460" y="256" width="90" height="30" as="geometry" />
        </mxCell>
        <mxCell id="eM8wZiDEQWay9FdF1tru-26" value="something" style="strokeWidth=1;shadow=0;dashed=0;align=center;html=1;shape=mxgraph.mockup.forms.pwField;strokeColor=#999999;mainText=;align=left;fontColor=#666666;fontSize=17;spacingLeft=3;" parent="1" vertex="1">
          <mxGeometry x="571" y="210" width="150" height="30" as="geometry" />
        </mxCell>
        <mxCell id="eM8wZiDEQWay9FdF1tru-27" value="username" style="strokeWidth=1;shadow=0;dashed=0;align=center;html=1;shape=mxgraph.mockup.forms.pwField;strokeColor=#999999;mainText=;align=left;fontColor=#666666;fontSize=17;spacingLeft=3;" parent="1" vertex="1">
          <mxGeometry x="461" y="210" width="90" height="30" as="geometry" />
        </mxCell>
        <mxCell id="eM8wZiDEQWay9FdF1tru-28" value="please login , sign up&amp;nbsp; or continue as a guest" style="text;html=1;strokeColor=none;fillColor=none;align=center;verticalAlign=middle;whiteSpace=wrap;rounded=0;fontSize=18;" parent="1" vertex="1">
          <mxGeometry x="385" y="425" width="380" height="50" as="geometry" />
        </mxCell>
        <mxCell id="WS9xfLJrSP3h6tB30TTQ-72" style="edgeStyle=orthogonalEdgeStyle;rounded=0;orthogonalLoop=1;jettySize=auto;html=1;" edge="1" parent="1" source="WS9xfLJrSP3h6tB30TTQ-1" target="WS9xfLJrSP3h6tB30TTQ-27">
          <mxGeometry relative="1" as="geometry">
            <Array as="points">
              <mxPoint x="1055" y="325" />
              <mxPoint x="1055" y="320" />
            </Array>
          </mxGeometry>
        </mxCell>
        <mxCell id="WS9xfLJrSP3h6tB30TTQ-1" value="login" style="strokeWidth=1;shadow=0;dashed=0;align=center;html=1;shape=mxgraph.mockup.buttons.button;strokeColor=#666666;fontColor=#ffffff;mainText=;buttonStyle=round;fontSize=17;fontStyle=1;fillColor=#008cff;whiteSpace=wrap;" vertex="1" parent="1">
          <mxGeometry x="500" y="300" width="150" height="50" as="geometry" />
        </mxCell>
        <mxCell id="WS9xfLJrSP3h6tB30TTQ-2" value="sign up" style="strokeWidth=1;shadow=0;dashed=0;align=center;html=1;shape=mxgraph.mockup.buttons.button;strokeColor=#666666;fontColor=#ffffff;mainText=;buttonStyle=round;fontSize=17;fontStyle=1;fillColor=#008cff;whiteSpace=wrap;" vertex="1" parent="1">
          <mxGeometry x="420" y="360" width="150" height="50" as="geometry" />
        </mxCell>
        <mxCell id="WS9xfLJrSP3h6tB30TTQ-108" style="edgeStyle=orthogonalEdgeStyle;rounded=0;orthogonalLoop=1;jettySize=auto;html=1;" edge="1" parent="1" source="WS9xfLJrSP3h6tB30TTQ-3" target="WS9xfLJrSP3h6tB30TTQ-82">
          <mxGeometry relative="1" as="geometry">
            <Array as="points">
              <mxPoint x="910" y="385" />
              <mxPoint x="910" y="645" />
              <mxPoint x="705" y="645" />
            </Array>
          </mxGeometry>
        </mxCell>
        <mxCell id="WS9xfLJrSP3h6tB30TTQ-3" value="guest" style="strokeWidth=1;shadow=0;dashed=0;align=center;html=1;shape=mxgraph.mockup.buttons.button;strokeColor=#666666;fontColor=#ffffff;mainText=;buttonStyle=round;fontSize=17;fontStyle=1;fillColor=#008cff;whiteSpace=wrap;" vertex="1" parent="1">
          <mxGeometry x="580" y="360" width="150" height="50" as="geometry" />
        </mxCell>
        <mxCell id="WS9xfLJrSP3h6tB30TTQ-27" value="main menu" style="strokeWidth=1;shadow=0;dashed=0;align=center;html=1;shape=mxgraph.mockup.containers.window;align=left;verticalAlign=top;spacingLeft=8;strokeColor2=#008cff;strokeColor3=#c4c4c4;fontColor=#666666;mainText=;fontSize=17;labelBackgroundColor=none;whiteSpace=wrap;" vertex="1" parent="1">
          <mxGeometry x="1460" y="170" width="550" height="460" as="geometry" />
        </mxCell>
        <mxCell id="WS9xfLJrSP3h6tB30TTQ-29" value="" style="strokeWidth=1;shadow=0;dashed=0;align=center;html=1;shape=mxgraph.mockup.rrect;rSize=10;fillColor=#ffffff;strokeColor=#666666;" vertex="1" parent="1">
          <mxGeometry x="1480" y="220" width="500" height="50" as="geometry" />
        </mxCell>
        <mxCell id="WS9xfLJrSP3h6tB30TTQ-30" value="search by category" style="strokeColor=#001DBC;fillColor=#0050ef;strokeWidth=1;shadow=0;dashed=0;align=center;html=1;shape=mxgraph.mockup.rrect;rSize=0;fontSize=17;fontColor=#ffffff;fontStyle=1;resizeHeight=1;whiteSpace=wrap;" vertex="1" parent="WS9xfLJrSP3h6tB30TTQ-29">
          <mxGeometry width="125" height="50" relative="1" as="geometry">
            <mxPoint x="125" as="offset" />
          </mxGeometry>
        </mxCell>
        <mxCell id="WS9xfLJrSP3h6tB30TTQ-31" value="search by keyword" style="strokeColor=#001DBC;fillColor=#0050ef;strokeWidth=1;shadow=0;dashed=0;align=center;html=1;shape=mxgraph.mockup.rrect;rSize=0;fontSize=17;fontColor=#ffffff;fontStyle=1;resizeHeight=1;whiteSpace=wrap;" vertex="1" parent="WS9xfLJrSP3h6tB30TTQ-29">
          <mxGeometry width="125" height="50" relative="1" as="geometry">
            <mxPoint x="250" as="offset" />
          </mxGeometry>
        </mxCell>
        <mxCell id="WS9xfLJrSP3h6tB30TTQ-32" value="search by name" style="strokeColor=#001DBC;fillColor=#0050ef;strokeWidth=1;shadow=0;dashed=0;align=center;html=1;shape=mxgraph.mockup.rightButton;rSize=10;fontSize=17;fontColor=#ffffff;fontStyle=1;resizeHeight=1;whiteSpace=wrap;" vertex="1" parent="WS9xfLJrSP3h6tB30TTQ-29">
          <mxGeometry x="1" width="125" height="50" relative="1" as="geometry">
            <mxPoint x="-125" as="offset" />
          </mxGeometry>
        </mxCell>
        <mxCell id="WS9xfLJrSP3h6tB30TTQ-33" value="managing" style="strokeWidth=1;shadow=0;dashed=0;align=center;html=1;shape=mxgraph.mockup.leftButton;rSize=10;fontSize=17;fontStyle=1;resizeHeight=1;whiteSpace=wrap;" vertex="1" parent="WS9xfLJrSP3h6tB30TTQ-29">
          <mxGeometry width="125" height="50" relative="1" as="geometry" />
        </mxCell>
        <mxCell id="WS9xfLJrSP3h6tB30TTQ-35" value="top sellling products:" style="text;html=1;strokeColor=none;fillColor=none;align=center;verticalAlign=middle;whiteSpace=wrap;rounded=0;fontSize=16;" vertex="1" parent="1">
          <mxGeometry x="1460" y="352" width="190" height="30" as="geometry" />
        </mxCell>
        <mxCell id="WS9xfLJrSP3h6tB30TTQ-45" value="" style="strokeWidth=1;shadow=0;dashed=0;align=center;html=1;shape=mxgraph.mockup.containers.rrect;rSize=0;strokeColor=#666666;fontColor=#666666;fontSize=17;verticalAlign=top;whiteSpace=wrap;fillColor=#ffffff;spacingTop=32;" vertex="1" parent="1">
          <mxGeometry x="1480" y="392" width="220" height="105" as="geometry" />
        </mxCell>
        <mxCell id="WS9xfLJrSP3h6tB30TTQ-49" value="" style="verticalLabelPosition=bottom;shadow=0;dashed=0;align=center;html=1;verticalAlign=top;strokeWidth=1;shape=mxgraph.mockup.graphics.simpleIcon;strokeColor=#999999;" vertex="1" parent="WS9xfLJrSP3h6tB30TTQ-45">
          <mxGeometry x="8.8" y="6.5625" width="202.4" height="32.8125" as="geometry" />
        </mxCell>
        <mxCell id="WS9xfLJrSP3h6tB30TTQ-51" value="product name" style="text;html=1;strokeColor=none;fillColor=none;align=center;verticalAlign=middle;whiteSpace=wrap;rounded=0;" vertex="1" parent="WS9xfLJrSP3h6tB30TTQ-45">
          <mxGeometry x="61.6" y="49.875" width="96.8" height="19.6875" as="geometry" />
        </mxCell>
        <mxCell id="WS9xfLJrSP3h6tB30TTQ-52" value="price" style="text;html=1;strokeColor=none;fillColor=none;align=center;verticalAlign=middle;whiteSpace=wrap;rounded=0;" vertex="1" parent="WS9xfLJrSP3h6tB30TTQ-45">
          <mxGeometry x="61.6" y="69.5625" width="96.8" height="19.6875" as="geometry" />
        </mxCell>
        <mxCell id="WS9xfLJrSP3h6tB30TTQ-57" value="" style="strokeWidth=1;shadow=0;dashed=0;align=center;html=1;shape=mxgraph.mockup.containers.rrect;rSize=0;strokeColor=#666666;fontColor=#666666;fontSize=17;verticalAlign=top;whiteSpace=wrap;fillColor=#ffffff;spacingTop=32;" vertex="1" parent="1">
          <mxGeometry x="1730" y="392" width="220" height="105" as="geometry" />
        </mxCell>
        <mxCell id="WS9xfLJrSP3h6tB30TTQ-58" value="" style="verticalLabelPosition=bottom;shadow=0;dashed=0;align=center;html=1;verticalAlign=top;strokeWidth=1;shape=mxgraph.mockup.graphics.simpleIcon;strokeColor=#999999;" vertex="1" parent="WS9xfLJrSP3h6tB30TTQ-57">
          <mxGeometry x="8.8" y="6.5625" width="202.4" height="32.8125" as="geometry" />
        </mxCell>
        <mxCell id="WS9xfLJrSP3h6tB30TTQ-59" value="product name" style="text;html=1;strokeColor=none;fillColor=none;align=center;verticalAlign=middle;whiteSpace=wrap;rounded=0;" vertex="1" parent="WS9xfLJrSP3h6tB30TTQ-57">
          <mxGeometry x="61.6" y="49.875" width="96.8" height="19.6875" as="geometry" />
        </mxCell>
        <mxCell id="WS9xfLJrSP3h6tB30TTQ-60" value="price" style="text;html=1;strokeColor=none;fillColor=none;align=center;verticalAlign=middle;whiteSpace=wrap;rounded=0;" vertex="1" parent="WS9xfLJrSP3h6tB30TTQ-57">
          <mxGeometry x="61.6" y="69.5625" width="96.8" height="19.6875" as="geometry" />
        </mxCell>
        <mxCell id="WS9xfLJrSP3h6tB30TTQ-62" value="" style="strokeWidth=1;shadow=0;dashed=0;align=center;html=1;shape=mxgraph.mockup.containers.rrect;rSize=0;strokeColor=#666666;fontColor=#666666;fontSize=17;verticalAlign=top;whiteSpace=wrap;fillColor=#ffffff;spacingTop=32;" vertex="1" parent="1">
          <mxGeometry x="1480" y="512" width="220" height="105" as="geometry" />
        </mxCell>
        <mxCell id="WS9xfLJrSP3h6tB30TTQ-63" value="" style="verticalLabelPosition=bottom;shadow=0;dashed=0;align=center;html=1;verticalAlign=top;strokeWidth=1;shape=mxgraph.mockup.graphics.simpleIcon;strokeColor=#999999;" vertex="1" parent="WS9xfLJrSP3h6tB30TTQ-62">
          <mxGeometry x="8.8" y="6.5625" width="202.4" height="32.8125" as="geometry" />
        </mxCell>
        <mxCell id="WS9xfLJrSP3h6tB30TTQ-64" value="product name" style="text;html=1;strokeColor=none;fillColor=none;align=center;verticalAlign=middle;whiteSpace=wrap;rounded=0;" vertex="1" parent="WS9xfLJrSP3h6tB30TTQ-62">
          <mxGeometry x="61.6" y="49.875" width="96.8" height="19.6875" as="geometry" />
        </mxCell>
        <mxCell id="WS9xfLJrSP3h6tB30TTQ-65" value="price" style="text;html=1;strokeColor=none;fillColor=none;align=center;verticalAlign=middle;whiteSpace=wrap;rounded=0;" vertex="1" parent="WS9xfLJrSP3h6tB30TTQ-62">
          <mxGeometry x="61.6" y="69.5625" width="96.8" height="19.6875" as="geometry" />
        </mxCell>
        <mxCell id="WS9xfLJrSP3h6tB30TTQ-66" value="" style="strokeWidth=1;shadow=0;dashed=0;align=center;html=1;shape=mxgraph.mockup.containers.rrect;rSize=0;strokeColor=#666666;fontColor=#666666;fontSize=17;verticalAlign=top;whiteSpace=wrap;fillColor=#ffffff;spacingTop=32;" vertex="1" parent="1">
          <mxGeometry x="1730" y="512" width="220" height="105" as="geometry" />
        </mxCell>
        <mxCell id="WS9xfLJrSP3h6tB30TTQ-67" value="" style="verticalLabelPosition=bottom;shadow=0;dashed=0;align=center;html=1;verticalAlign=top;strokeWidth=1;shape=mxgraph.mockup.graphics.simpleIcon;strokeColor=#999999;" vertex="1" parent="WS9xfLJrSP3h6tB30TTQ-66">
          <mxGeometry x="8.8" y="6.5625" width="202.4" height="32.8125" as="geometry" />
        </mxCell>
        <mxCell id="WS9xfLJrSP3h6tB30TTQ-68" value="product name" style="text;html=1;strokeColor=none;fillColor=none;align=center;verticalAlign=middle;whiteSpace=wrap;rounded=0;" vertex="1" parent="WS9xfLJrSP3h6tB30TTQ-66">
          <mxGeometry x="61.6" y="49.875" width="96.8" height="19.6875" as="geometry" />
        </mxCell>
        <mxCell id="WS9xfLJrSP3h6tB30TTQ-69" value="price" style="text;html=1;strokeColor=none;fillColor=none;align=center;verticalAlign=middle;whiteSpace=wrap;rounded=0;" vertex="1" parent="WS9xfLJrSP3h6tB30TTQ-66">
          <mxGeometry x="61.6" y="69.5625" width="96.8" height="19.6875" as="geometry" />
        </mxCell>
        <mxCell id="WS9xfLJrSP3h6tB30TTQ-74" value="&lt;h1 style=&quot;font-size: 29px;&quot;&gt;comments:&lt;/h1&gt;&lt;p style=&quot;font-size: 29px;&quot;&gt;1) if the user have managing options then it will be avialbe to click on&lt;/p&gt;&lt;p style=&quot;font-size: 29px;&quot;&gt;2) if the uer is a memeber and in his last session he logged out with products in cart.&lt;/p&gt;" style="text;html=1;strokeColor=#d6b656;fillColor=#fff2cc;spacing=5;spacingTop=-20;whiteSpace=wrap;overflow=hidden;rounded=0;fontSize=29;" vertex="1" parent="1">
          <mxGeometry x="-1410" y="920" width="1250" height="213" as="geometry" />
        </mxCell>
        <mxCell id="WS9xfLJrSP3h6tB30TTQ-75" value="&lt;p style=&quot;line-height: 140%; font-size: 16px;&quot;&gt;&lt;font color=&quot;#ff3333&quot; style=&quot;font-size: 16px;&quot;&gt;&lt;b style=&quot;font-size: 16px;&quot;&gt;(1)&lt;/b&gt;&lt;/font&gt;&lt;/p&gt;" style="text;html=1;strokeColor=none;fillColor=none;align=center;verticalAlign=middle;whiteSpace=wrap;rounded=0;fontSize=16;" vertex="1" parent="1">
          <mxGeometry x="1510" y="195" width="60" height="30" as="geometry" />
        </mxCell>
        <mxCell id="WS9xfLJrSP3h6tB30TTQ-79" value="cart" style="strokeWidth=1;shadow=0;dashed=0;align=center;html=1;shape=mxgraph.mockup.buttons.button;mainText=;buttonStyle=round;fontSize=17;fontStyle=1;whiteSpace=wrap;" vertex="1" parent="1">
          <mxGeometry x="1510" y="300" width="410" height="50" as="geometry" />
        </mxCell>
        <mxCell id="WS9xfLJrSP3h6tB30TTQ-80" value="&lt;p style=&quot;line-height: 140%; font-size: 16px;&quot;&gt;&lt;font color=&quot;#ff3333&quot; style=&quot;font-size: 16px;&quot;&gt;&lt;b style=&quot;font-size: 16px;&quot;&gt;(2)&lt;/b&gt;&lt;/font&gt;&lt;/p&gt;" style="text;html=1;strokeColor=none;fillColor=none;align=center;verticalAlign=middle;whiteSpace=wrap;rounded=0;fontSize=16;" vertex="1" parent="1">
          <mxGeometry x="1685" y="275" width="60" height="30" as="geometry" />
        </mxCell>
        <mxCell id="WS9xfLJrSP3h6tB30TTQ-82" value="main menu" style="strokeWidth=1;shadow=0;dashed=0;align=center;html=1;shape=mxgraph.mockup.containers.window;align=left;verticalAlign=top;spacingLeft=8;strokeColor2=#008cff;strokeColor3=#c4c4c4;fontColor=#666666;mainText=;fontSize=17;labelBackgroundColor=none;whiteSpace=wrap;" vertex="1" parent="1">
          <mxGeometry x="430" y="880" width="550" height="460" as="geometry" />
        </mxCell>
        <mxCell id="WS9xfLJrSP3h6tB30TTQ-83" value="" style="strokeWidth=1;shadow=0;dashed=0;align=center;html=1;shape=mxgraph.mockup.rrect;rSize=10;" vertex="1" parent="1">
          <mxGeometry x="450" y="930" width="500" height="50" as="geometry" />
        </mxCell>
        <mxCell id="WS9xfLJrSP3h6tB30TTQ-84" value="search by category" style="strokeColor=#001DBC;fillColor=#0050ef;strokeWidth=1;shadow=0;dashed=0;align=center;html=1;shape=mxgraph.mockup.rrect;rSize=0;fontSize=17;fontColor=#ffffff;fontStyle=1;resizeHeight=1;whiteSpace=wrap;" vertex="1" parent="WS9xfLJrSP3h6tB30TTQ-83">
          <mxGeometry width="125" height="50" relative="1" as="geometry">
            <mxPoint x="125" as="offset" />
          </mxGeometry>
        </mxCell>
        <mxCell id="WS9xfLJrSP3h6tB30TTQ-85" value="search by keyword" style="strokeColor=#001DBC;fillColor=#0050ef;strokeWidth=1;shadow=0;dashed=0;align=center;html=1;shape=mxgraph.mockup.rrect;rSize=0;fontSize=17;fontColor=#ffffff;fontStyle=1;resizeHeight=1;whiteSpace=wrap;" vertex="1" parent="WS9xfLJrSP3h6tB30TTQ-83">
          <mxGeometry width="125" height="50" relative="1" as="geometry">
            <mxPoint x="250" as="offset" />
          </mxGeometry>
        </mxCell>
        <mxCell id="WS9xfLJrSP3h6tB30TTQ-86" value="search by name" style="strokeColor=#001DBC;fillColor=#0050ef;strokeWidth=1;shadow=0;dashed=0;align=center;html=1;shape=mxgraph.mockup.rightButton;rSize=10;fontSize=17;fontColor=#ffffff;fontStyle=1;resizeHeight=1;whiteSpace=wrap;" vertex="1" parent="WS9xfLJrSP3h6tB30TTQ-83">
          <mxGeometry x="1" width="125" height="50" relative="1" as="geometry">
            <mxPoint x="-125" as="offset" />
          </mxGeometry>
        </mxCell>
        <mxCell id="WS9xfLJrSP3h6tB30TTQ-87" value="managing" style="strokeWidth=1;shadow=0;dashed=0;align=center;html=1;shape=mxgraph.mockup.leftButton;rSize=10;fontSize=17;fontStyle=1;resizeHeight=1;whiteSpace=wrap;opacity=30;" vertex="1" parent="WS9xfLJrSP3h6tB30TTQ-83">
          <mxGeometry width="125" height="50" relative="1" as="geometry" />
        </mxCell>
        <mxCell id="WS9xfLJrSP3h6tB30TTQ-88" value="top sellling products:" style="text;html=1;strokeColor=none;fillColor=none;align=center;verticalAlign=middle;whiteSpace=wrap;rounded=0;fontSize=16;" vertex="1" parent="1">
          <mxGeometry x="430" y="1062" width="190" height="30" as="geometry" />
        </mxCell>
        <mxCell id="WS9xfLJrSP3h6tB30TTQ-89" value="" style="strokeWidth=1;shadow=0;dashed=0;align=center;html=1;shape=mxgraph.mockup.containers.rrect;rSize=0;strokeColor=#666666;fontColor=#666666;fontSize=17;verticalAlign=top;whiteSpace=wrap;fillColor=#ffffff;spacingTop=32;" vertex="1" parent="1">
          <mxGeometry x="450" y="1102" width="220" height="105" as="geometry" />
        </mxCell>
        <mxCell id="WS9xfLJrSP3h6tB30TTQ-90" value="" style="verticalLabelPosition=bottom;shadow=0;dashed=0;align=center;html=1;verticalAlign=top;strokeWidth=1;shape=mxgraph.mockup.graphics.simpleIcon;strokeColor=#999999;" vertex="1" parent="WS9xfLJrSP3h6tB30TTQ-89">
          <mxGeometry x="8.8" y="6.5625" width="202.4" height="32.8125" as="geometry" />
        </mxCell>
        <mxCell id="WS9xfLJrSP3h6tB30TTQ-91" value="product name" style="text;html=1;strokeColor=none;fillColor=none;align=center;verticalAlign=middle;whiteSpace=wrap;rounded=0;" vertex="1" parent="WS9xfLJrSP3h6tB30TTQ-89">
          <mxGeometry x="61.6" y="49.875" width="96.8" height="19.6875" as="geometry" />
        </mxCell>
        <mxCell id="WS9xfLJrSP3h6tB30TTQ-92" value="price" style="text;html=1;strokeColor=none;fillColor=none;align=center;verticalAlign=middle;whiteSpace=wrap;rounded=0;" vertex="1" parent="WS9xfLJrSP3h6tB30TTQ-89">
          <mxGeometry x="61.6" y="69.5625" width="96.8" height="19.6875" as="geometry" />
        </mxCell>
        <mxCell id="WS9xfLJrSP3h6tB30TTQ-93" value="" style="strokeWidth=1;shadow=0;dashed=0;align=center;html=1;shape=mxgraph.mockup.containers.rrect;rSize=0;strokeColor=#666666;fontColor=#666666;fontSize=17;verticalAlign=top;whiteSpace=wrap;fillColor=#ffffff;spacingTop=32;" vertex="1" parent="1">
          <mxGeometry x="700" y="1102" width="220" height="105" as="geometry" />
        </mxCell>
        <mxCell id="WS9xfLJrSP3h6tB30TTQ-94" value="" style="verticalLabelPosition=bottom;shadow=0;dashed=0;align=center;html=1;verticalAlign=top;strokeWidth=1;shape=mxgraph.mockup.graphics.simpleIcon;strokeColor=#999999;" vertex="1" parent="WS9xfLJrSP3h6tB30TTQ-93">
          <mxGeometry x="8.8" y="6.5625" width="202.4" height="32.8125" as="geometry" />
        </mxCell>
        <mxCell id="WS9xfLJrSP3h6tB30TTQ-95" value="product name" style="text;html=1;strokeColor=none;fillColor=none;align=center;verticalAlign=middle;whiteSpace=wrap;rounded=0;" vertex="1" parent="WS9xfLJrSP3h6tB30TTQ-93">
          <mxGeometry x="61.6" y="49.875" width="96.8" height="19.6875" as="geometry" />
        </mxCell>
        <mxCell id="WS9xfLJrSP3h6tB30TTQ-96" value="price" style="text;html=1;strokeColor=none;fillColor=none;align=center;verticalAlign=middle;whiteSpace=wrap;rounded=0;" vertex="1" parent="WS9xfLJrSP3h6tB30TTQ-93">
          <mxGeometry x="61.6" y="69.5625" width="96.8" height="19.6875" as="geometry" />
        </mxCell>
        <mxCell id="WS9xfLJrSP3h6tB30TTQ-97" value="" style="strokeWidth=1;shadow=0;dashed=0;align=center;html=1;shape=mxgraph.mockup.containers.rrect;rSize=0;strokeColor=#666666;fontColor=#666666;fontSize=17;verticalAlign=top;whiteSpace=wrap;fillColor=#ffffff;spacingTop=32;" vertex="1" parent="1">
          <mxGeometry x="450" y="1222" width="220" height="105" as="geometry" />
        </mxCell>
        <mxCell id="WS9xfLJrSP3h6tB30TTQ-98" value="" style="verticalLabelPosition=bottom;shadow=0;dashed=0;align=center;html=1;verticalAlign=top;strokeWidth=1;shape=mxgraph.mockup.graphics.simpleIcon;strokeColor=#999999;" vertex="1" parent="WS9xfLJrSP3h6tB30TTQ-97">
          <mxGeometry x="8.8" y="6.5625" width="202.4" height="32.8125" as="geometry" />
        </mxCell>
        <mxCell id="WS9xfLJrSP3h6tB30TTQ-99" value="product name" style="text;html=1;strokeColor=none;fillColor=none;align=center;verticalAlign=middle;whiteSpace=wrap;rounded=0;" vertex="1" parent="WS9xfLJrSP3h6tB30TTQ-97">
          <mxGeometry x="61.6" y="49.875" width="96.8" height="19.6875" as="geometry" />
        </mxCell>
        <mxCell id="WS9xfLJrSP3h6tB30TTQ-100" value="price" style="text;html=1;strokeColor=none;fillColor=none;align=center;verticalAlign=middle;whiteSpace=wrap;rounded=0;" vertex="1" parent="WS9xfLJrSP3h6tB30TTQ-97">
          <mxGeometry x="61.6" y="69.5625" width="96.8" height="19.6875" as="geometry" />
        </mxCell>
        <mxCell id="WS9xfLJrSP3h6tB30TTQ-101" value="" style="strokeWidth=1;shadow=0;dashed=0;align=center;html=1;shape=mxgraph.mockup.containers.rrect;rSize=0;strokeColor=#666666;fontColor=#666666;fontSize=17;verticalAlign=top;whiteSpace=wrap;fillColor=#ffffff;spacingTop=32;" vertex="1" parent="1">
          <mxGeometry x="700" y="1222" width="220" height="105" as="geometry" />
        </mxCell>
        <mxCell id="WS9xfLJrSP3h6tB30TTQ-102" value="" style="verticalLabelPosition=bottom;shadow=0;dashed=0;align=center;html=1;verticalAlign=top;strokeWidth=1;shape=mxgraph.mockup.graphics.simpleIcon;strokeColor=#999999;" vertex="1" parent="WS9xfLJrSP3h6tB30TTQ-101">
          <mxGeometry x="8.8" y="6.5625" width="202.4" height="32.8125" as="geometry" />
        </mxCell>
        <mxCell id="WS9xfLJrSP3h6tB30TTQ-103" value="product name" style="text;html=1;strokeColor=none;fillColor=none;align=center;verticalAlign=middle;whiteSpace=wrap;rounded=0;" vertex="1" parent="WS9xfLJrSP3h6tB30TTQ-101">
          <mxGeometry x="61.6" y="49.875" width="96.8" height="19.6875" as="geometry" />
        </mxCell>
        <mxCell id="WS9xfLJrSP3h6tB30TTQ-104" value="price" style="text;html=1;strokeColor=none;fillColor=none;align=center;verticalAlign=middle;whiteSpace=wrap;rounded=0;" vertex="1" parent="WS9xfLJrSP3h6tB30TTQ-101">
          <mxGeometry x="61.6" y="69.5625" width="96.8" height="19.6875" as="geometry" />
        </mxCell>
        <mxCell id="WS9xfLJrSP3h6tB30TTQ-105" value="&lt;p style=&quot;line-height: 140%; font-size: 16px;&quot;&gt;&lt;font color=&quot;#ff3333&quot; style=&quot;font-size: 16px;&quot;&gt;&lt;b style=&quot;font-size: 16px;&quot;&gt;(1)&lt;/b&gt;&lt;/font&gt;&lt;/p&gt;" style="text;html=1;strokeColor=none;fillColor=none;align=center;verticalAlign=middle;whiteSpace=wrap;rounded=0;fontSize=16;" vertex="1" parent="1">
          <mxGeometry x="480" y="905" width="60" height="30" as="geometry" />
        </mxCell>
        <mxCell id="WS9xfLJrSP3h6tB30TTQ-106" value="cart" style="strokeWidth=1;shadow=0;dashed=0;align=center;html=1;shape=mxgraph.mockup.buttons.button;mainText=;buttonStyle=round;fontSize=17;fontStyle=1;whiteSpace=wrap;opacity=30;" vertex="1" parent="1">
          <mxGeometry x="480" y="1010" width="410" height="50" as="geometry" />
        </mxCell>
        <mxCell id="WS9xfLJrSP3h6tB30TTQ-107" value="&lt;p style=&quot;line-height: 140%; font-size: 16px;&quot;&gt;&lt;font color=&quot;#ff3333&quot; style=&quot;font-size: 16px;&quot;&gt;&lt;b style=&quot;font-size: 16px;&quot;&gt;(2)&lt;/b&gt;&lt;/font&gt;&lt;/p&gt;" style="text;html=1;strokeColor=none;fillColor=none;align=center;verticalAlign=middle;whiteSpace=wrap;rounded=0;fontSize=16;" vertex="1" parent="1">
          <mxGeometry x="655" y="985" width="60" height="30" as="geometry" />
        </mxCell>
        <mxCell id="DWiZ_0gXpjANwphZb_NN-42" style="edgeStyle=orthogonalEdgeStyle;rounded=0;orthogonalLoop=1;jettySize=auto;html=1;entryX=0.003;entryY=0.495;entryDx=0;entryDy=0;entryPerimeter=0;" edge="1" parent="1" source="WS9xfLJrSP3h6tB30TTQ-109" target="DWiZ_0gXpjANwphZb_NN-2">
          <mxGeometry relative="1" as="geometry" />
        </mxCell>
        <mxCell id="WS9xfLJrSP3h6tB30TTQ-109" value="search by catagery" style="strokeWidth=1;shadow=0;dashed=0;align=center;html=1;shape=mxgraph.mockup.containers.window;align=left;verticalAlign=top;spacingLeft=8;strokeColor2=#008cff;strokeColor3=#c4c4c4;fontColor=#666666;mainText=;fontSize=17;labelBackgroundColor=none;whiteSpace=wrap;" vertex="1" parent="1">
          <mxGeometry x="2910" y="-100" width="550" height="300" as="geometry" />
        </mxCell>
        <mxCell id="WS9xfLJrSP3h6tB30TTQ-110" value="search by category" style="strokeWidth=1;shadow=0;dashed=0;align=center;html=1;shape=mxgraph.mockup.forms.pwField;strokeColor=#999999;mainText=;align=left;fontColor=#666666;fontSize=17;spacingLeft=3;" vertex="1" parent="1">
          <mxGeometry x="2930" y="-58" width="490" height="30" as="geometry" />
        </mxCell>
        <mxCell id="WS9xfLJrSP3h6tB30TTQ-111" value="filter-by" style="strokeWidth=1;shadow=0;dashed=0;align=center;html=1;shape=mxgraph.mockup.forms.comboBox;strokeColor=#999999;fillColor=#ddeeff;align=left;fillColor2=#aaddff;mainText=;fontColor=#666666;fontSize=17;spacingLeft=3;" vertex="1" parent="1">
          <mxGeometry x="2930" y="-5" width="150" height="30" as="geometry" />
        </mxCell>
        <mxCell id="DWiZ_0gXpjANwphZb_NN-43" style="edgeStyle=orthogonalEdgeStyle;rounded=0;orthogonalLoop=1;jettySize=auto;html=1;" edge="1" parent="1" source="WS9xfLJrSP3h6tB30TTQ-114" target="DWiZ_0gXpjANwphZb_NN-2">
          <mxGeometry relative="1" as="geometry">
            <Array as="points">
              <mxPoint x="3860" y="406" />
              <mxPoint x="3860" y="367" />
            </Array>
          </mxGeometry>
        </mxCell>
        <mxCell id="WS9xfLJrSP3h6tB30TTQ-114" value="search by key word" style="strokeWidth=1;shadow=0;dashed=0;align=center;html=1;shape=mxgraph.mockup.containers.window;align=left;verticalAlign=top;spacingLeft=8;strokeColor2=#008cff;strokeColor3=#c4c4c4;fontColor=#666666;mainText=;fontSize=17;labelBackgroundColor=none;whiteSpace=wrap;" vertex="1" parent="1">
          <mxGeometry x="2910" y="256" width="550" height="300" as="geometry" />
        </mxCell>
        <mxCell id="WS9xfLJrSP3h6tB30TTQ-115" value="search by key word" style="strokeWidth=1;shadow=0;dashed=0;align=center;html=1;shape=mxgraph.mockup.forms.pwField;strokeColor=#999999;mainText=;align=left;fontColor=#666666;fontSize=17;spacingLeft=3;" vertex="1" parent="1">
          <mxGeometry x="2930" y="298" width="490" height="30" as="geometry" />
        </mxCell>
        <mxCell id="WS9xfLJrSP3h6tB30TTQ-116" value="filter-by" style="strokeWidth=1;shadow=0;dashed=0;align=center;html=1;shape=mxgraph.mockup.forms.comboBox;strokeColor=#999999;fillColor=#ddeeff;align=left;fillColor2=#aaddff;mainText=;fontColor=#666666;fontSize=17;spacingLeft=3;" vertex="1" parent="1">
          <mxGeometry x="2930" y="351" width="150" height="30" as="geometry" />
        </mxCell>
        <mxCell id="DWiZ_0gXpjANwphZb_NN-44" style="edgeStyle=orthogonalEdgeStyle;rounded=0;orthogonalLoop=1;jettySize=auto;html=1;entryX=0;entryY=0.507;entryDx=0;entryDy=0;entryPerimeter=0;" edge="1" parent="1" source="WS9xfLJrSP3h6tB30TTQ-117" target="DWiZ_0gXpjANwphZb_NN-2">
          <mxGeometry relative="1" as="geometry">
            <Array as="points">
              <mxPoint x="3860" y="750" />
              <mxPoint x="3860" y="367" />
              <mxPoint x="4260" y="367" />
            </Array>
          </mxGeometry>
        </mxCell>
        <mxCell id="WS9xfLJrSP3h6tB30TTQ-117" value="search by prodcut name" style="strokeWidth=1;shadow=0;dashed=0;align=center;html=1;shape=mxgraph.mockup.containers.window;align=left;verticalAlign=top;spacingLeft=8;strokeColor2=#008cff;strokeColor3=#c4c4c4;fontColor=#666666;mainText=;fontSize=17;labelBackgroundColor=none;whiteSpace=wrap;" vertex="1" parent="1">
          <mxGeometry x="2910" y="600" width="550" height="300" as="geometry" />
        </mxCell>
        <mxCell id="WS9xfLJrSP3h6tB30TTQ-118" value="search by product name" style="strokeWidth=1;shadow=0;dashed=0;align=center;html=1;shape=mxgraph.mockup.forms.pwField;strokeColor=#999999;mainText=;align=left;fontColor=#666666;fontSize=17;spacingLeft=3;" vertex="1" parent="1">
          <mxGeometry x="2930" y="642" width="490" height="30" as="geometry" />
        </mxCell>
        <mxCell id="WS9xfLJrSP3h6tB30TTQ-119" value="filter-by" style="strokeWidth=1;shadow=0;dashed=0;align=center;html=1;shape=mxgraph.mockup.forms.comboBox;strokeColor=#999999;fillColor=#ddeeff;align=left;fillColor2=#aaddff;mainText=;fontColor=#666666;fontSize=17;spacingLeft=3;" vertex="1" parent="1">
          <mxGeometry x="2930" y="695" width="150" height="30" as="geometry" />
        </mxCell>
        <mxCell id="WS9xfLJrSP3h6tB30TTQ-120" style="edgeStyle=orthogonalEdgeStyle;rounded=0;orthogonalLoop=1;jettySize=auto;html=1;" edge="1" parent="1" source="WS9xfLJrSP3h6tB30TTQ-30" target="WS9xfLJrSP3h6tB30TTQ-109">
          <mxGeometry relative="1" as="geometry">
            <Array as="points">
              <mxPoint x="1668" y="20" />
            </Array>
          </mxGeometry>
        </mxCell>
        <mxCell id="WS9xfLJrSP3h6tB30TTQ-121" style="edgeStyle=orthogonalEdgeStyle;rounded=0;orthogonalLoop=1;jettySize=auto;html=1;" edge="1" parent="1" source="WS9xfLJrSP3h6tB30TTQ-31" target="WS9xfLJrSP3h6tB30TTQ-114">
          <mxGeometry relative="1" as="geometry">
            <Array as="points">
              <mxPoint x="1793" y="100" />
              <mxPoint x="2383" y="100" />
              <mxPoint x="2383" y="406" />
            </Array>
          </mxGeometry>
        </mxCell>
        <mxCell id="WS9xfLJrSP3h6tB30TTQ-122" style="edgeStyle=orthogonalEdgeStyle;rounded=0;orthogonalLoop=1;jettySize=auto;html=1;" edge="1" parent="1" source="WS9xfLJrSP3h6tB30TTQ-32" target="WS9xfLJrSP3h6tB30TTQ-117">
          <mxGeometry relative="1" as="geometry">
            <Array as="points">
              <mxPoint x="2310" y="245" />
              <mxPoint x="2310" y="790" />
            </Array>
          </mxGeometry>
        </mxCell>
        <mxCell id="WS9xfLJrSP3h6tB30TTQ-123" value="search" style="strokeWidth=1;shadow=0;dashed=0;align=center;html=1;shape=mxgraph.mockup.buttons.button;strokeColor=#666666;fontColor=#ffffff;mainText=;buttonStyle=round;fontSize=17;fontStyle=1;fillColor=#008cff;whiteSpace=wrap;" vertex="1" parent="1">
          <mxGeometry x="3170" y="-5" width="150" height="50" as="geometry" />
        </mxCell>
        <mxCell id="WS9xfLJrSP3h6tB30TTQ-124" value="search" style="strokeWidth=1;shadow=0;dashed=0;align=center;html=1;shape=mxgraph.mockup.buttons.button;strokeColor=#666666;fontColor=#ffffff;mainText=;buttonStyle=round;fontSize=17;fontStyle=1;fillColor=#008cff;whiteSpace=wrap;" vertex="1" parent="1">
          <mxGeometry x="3180" y="375" width="150" height="50" as="geometry" />
        </mxCell>
        <mxCell id="WS9xfLJrSP3h6tB30TTQ-125" value="search" style="strokeWidth=1;shadow=0;dashed=0;align=center;html=1;shape=mxgraph.mockup.buttons.button;strokeColor=#666666;fontColor=#ffffff;mainText=;buttonStyle=round;fontSize=17;fontStyle=1;fillColor=#008cff;whiteSpace=wrap;" vertex="1" parent="1">
          <mxGeometry x="3170" y="698.5" width="150" height="50" as="geometry" />
        </mxCell>
        <mxCell id="DWiZ_0gXpjANwphZb_NN-2" value="result" style="strokeWidth=1;shadow=0;dashed=0;align=center;html=1;shape=mxgraph.mockup.containers.window;align=left;verticalAlign=top;spacingLeft=8;strokeColor2=#008cff;strokeColor3=#c4c4c4;fontColor=#666666;mainText=;fontSize=17;labelBackgroundColor=none;whiteSpace=wrap;" vertex="1" parent="1">
          <mxGeometry x="4260" y="137" width="550" height="460" as="geometry" />
        </mxCell>
        <mxCell id="DWiZ_0gXpjANwphZb_NN-9" value="" style="strokeWidth=1;shadow=0;dashed=0;align=center;html=1;shape=mxgraph.mockup.containers.rrect;rSize=0;strokeColor=#666666;fontColor=#666666;fontSize=17;verticalAlign=top;whiteSpace=wrap;fillColor=#ffffff;spacingTop=32;" vertex="1" parent="1">
          <mxGeometry x="4300" y="190" width="220" height="105" as="geometry" />
        </mxCell>
        <mxCell id="DWiZ_0gXpjANwphZb_NN-10" value="" style="verticalLabelPosition=bottom;shadow=0;dashed=0;align=center;html=1;verticalAlign=top;strokeWidth=1;shape=mxgraph.mockup.graphics.simpleIcon;strokeColor=#999999;" vertex="1" parent="DWiZ_0gXpjANwphZb_NN-9">
          <mxGeometry x="8.8" y="6.5625" width="202.4" height="32.8125" as="geometry" />
        </mxCell>
        <mxCell id="DWiZ_0gXpjANwphZb_NN-11" value="product name" style="text;html=1;strokeColor=none;fillColor=none;align=center;verticalAlign=middle;whiteSpace=wrap;rounded=0;" vertex="1" parent="DWiZ_0gXpjANwphZb_NN-9">
          <mxGeometry x="61.6" y="49.875" width="96.8" height="19.6875" as="geometry" />
        </mxCell>
        <mxCell id="DWiZ_0gXpjANwphZb_NN-12" value="price" style="text;html=1;strokeColor=none;fillColor=none;align=center;verticalAlign=middle;whiteSpace=wrap;rounded=0;" vertex="1" parent="DWiZ_0gXpjANwphZb_NN-9">
          <mxGeometry x="61.6" y="69.5625" width="96.8" height="19.6875" as="geometry" />
        </mxCell>
        <mxCell id="DWiZ_0gXpjANwphZb_NN-13" value="" style="strokeWidth=1;shadow=0;dashed=0;align=center;html=1;shape=mxgraph.mockup.containers.rrect;rSize=0;strokeColor=#666666;fontColor=#666666;fontSize=17;verticalAlign=top;whiteSpace=wrap;fillColor=#ffffff;spacingTop=32;" vertex="1" parent="1">
          <mxGeometry x="4550" y="190" width="220" height="105" as="geometry" />
        </mxCell>
        <mxCell id="DWiZ_0gXpjANwphZb_NN-14" value="" style="verticalLabelPosition=bottom;shadow=0;dashed=0;align=center;html=1;verticalAlign=top;strokeWidth=1;shape=mxgraph.mockup.graphics.simpleIcon;strokeColor=#999999;" vertex="1" parent="DWiZ_0gXpjANwphZb_NN-13">
          <mxGeometry x="8.8" y="6.5625" width="202.4" height="32.8125" as="geometry" />
        </mxCell>
        <mxCell id="DWiZ_0gXpjANwphZb_NN-15" value="product name" style="text;html=1;strokeColor=none;fillColor=none;align=center;verticalAlign=middle;whiteSpace=wrap;rounded=0;" vertex="1" parent="DWiZ_0gXpjANwphZb_NN-13">
          <mxGeometry x="61.6" y="49.875" width="96.8" height="19.6875" as="geometry" />
        </mxCell>
        <mxCell id="DWiZ_0gXpjANwphZb_NN-16" value="price" style="text;html=1;strokeColor=none;fillColor=none;align=center;verticalAlign=middle;whiteSpace=wrap;rounded=0;" vertex="1" parent="DWiZ_0gXpjANwphZb_NN-13">
          <mxGeometry x="61.6" y="69.5625" width="96.8" height="19.6875" as="geometry" />
        </mxCell>
        <mxCell id="DWiZ_0gXpjANwphZb_NN-17" value="" style="strokeWidth=1;shadow=0;dashed=0;align=center;html=1;shape=mxgraph.mockup.containers.rrect;rSize=0;strokeColor=#666666;fontColor=#666666;fontSize=17;verticalAlign=top;whiteSpace=wrap;fillColor=#ffffff;spacingTop=32;" vertex="1" parent="1">
          <mxGeometry x="4300" y="310" width="220" height="105" as="geometry" />
        </mxCell>
        <mxCell id="DWiZ_0gXpjANwphZb_NN-18" value="" style="verticalLabelPosition=bottom;shadow=0;dashed=0;align=center;html=1;verticalAlign=top;strokeWidth=1;shape=mxgraph.mockup.graphics.simpleIcon;strokeColor=#999999;" vertex="1" parent="DWiZ_0gXpjANwphZb_NN-17">
          <mxGeometry x="8.8" y="6.5625" width="202.4" height="32.8125" as="geometry" />
        </mxCell>
        <mxCell id="DWiZ_0gXpjANwphZb_NN-19" value="product name" style="text;html=1;strokeColor=none;fillColor=none;align=center;verticalAlign=middle;whiteSpace=wrap;rounded=0;" vertex="1" parent="DWiZ_0gXpjANwphZb_NN-17">
          <mxGeometry x="61.6" y="49.875" width="96.8" height="19.6875" as="geometry" />
        </mxCell>
        <mxCell id="DWiZ_0gXpjANwphZb_NN-20" value="price" style="text;html=1;strokeColor=none;fillColor=none;align=center;verticalAlign=middle;whiteSpace=wrap;rounded=0;" vertex="1" parent="DWiZ_0gXpjANwphZb_NN-17">
          <mxGeometry x="61.6" y="69.5625" width="96.8" height="19.6875" as="geometry" />
        </mxCell>
        <mxCell id="DWiZ_0gXpjANwphZb_NN-21" value="" style="strokeWidth=1;shadow=0;dashed=0;align=center;html=1;shape=mxgraph.mockup.containers.rrect;rSize=0;strokeColor=#666666;fontColor=#666666;fontSize=17;verticalAlign=top;whiteSpace=wrap;fillColor=#ffffff;spacingTop=32;" vertex="1" parent="1">
          <mxGeometry x="4550" y="310" width="220" height="105" as="geometry" />
        </mxCell>
        <mxCell id="DWiZ_0gXpjANwphZb_NN-22" value="" style="verticalLabelPosition=bottom;shadow=0;dashed=0;align=center;html=1;verticalAlign=top;strokeWidth=1;shape=mxgraph.mockup.graphics.simpleIcon;strokeColor=#999999;" vertex="1" parent="DWiZ_0gXpjANwphZb_NN-21">
          <mxGeometry x="8.8" y="6.5625" width="202.4" height="32.8125" as="geometry" />
        </mxCell>
        <mxCell id="DWiZ_0gXpjANwphZb_NN-23" value="product name" style="text;html=1;strokeColor=none;fillColor=none;align=center;verticalAlign=middle;whiteSpace=wrap;rounded=0;" vertex="1" parent="DWiZ_0gXpjANwphZb_NN-21">
          <mxGeometry x="61.6" y="49.875" width="96.8" height="19.6875" as="geometry" />
        </mxCell>
        <mxCell id="DWiZ_0gXpjANwphZb_NN-24" value="price" style="text;html=1;strokeColor=none;fillColor=none;align=center;verticalAlign=middle;whiteSpace=wrap;rounded=0;" vertex="1" parent="DWiZ_0gXpjANwphZb_NN-21">
          <mxGeometry x="61.6" y="69.5625" width="96.8" height="19.6875" as="geometry" />
        </mxCell>
        <mxCell id="DWiZ_0gXpjANwphZb_NN-34" value="" style="strokeWidth=1;shadow=0;dashed=0;align=center;html=1;shape=mxgraph.mockup.containers.rrect;rSize=0;strokeColor=#666666;fontColor=#666666;fontSize=17;verticalAlign=top;whiteSpace=wrap;fillColor=#ffffff;spacingTop=32;" vertex="1" parent="1">
          <mxGeometry x="4300" y="437.5" width="220" height="105" as="geometry" />
        </mxCell>
        <mxCell id="DWiZ_0gXpjANwphZb_NN-35" value="" style="verticalLabelPosition=bottom;shadow=0;dashed=0;align=center;html=1;verticalAlign=top;strokeWidth=1;shape=mxgraph.mockup.graphics.simpleIcon;strokeColor=#999999;" vertex="1" parent="DWiZ_0gXpjANwphZb_NN-34">
          <mxGeometry x="8.8" y="6.5625" width="202.4" height="32.8125" as="geometry" />
        </mxCell>
        <mxCell id="DWiZ_0gXpjANwphZb_NN-36" value="product name" style="text;html=1;strokeColor=none;fillColor=none;align=center;verticalAlign=middle;whiteSpace=wrap;rounded=0;" vertex="1" parent="DWiZ_0gXpjANwphZb_NN-34">
          <mxGeometry x="61.6" y="49.875" width="96.8" height="19.6875" as="geometry" />
        </mxCell>
        <mxCell id="DWiZ_0gXpjANwphZb_NN-37" value="price" style="text;html=1;strokeColor=none;fillColor=none;align=center;verticalAlign=middle;whiteSpace=wrap;rounded=0;" vertex="1" parent="DWiZ_0gXpjANwphZb_NN-34">
          <mxGeometry x="61.6" y="69.5625" width="96.8" height="19.6875" as="geometry" />
        </mxCell>
        <mxCell id="DWiZ_0gXpjANwphZb_NN-38" value="" style="strokeWidth=1;shadow=0;dashed=0;align=center;html=1;shape=mxgraph.mockup.containers.rrect;rSize=0;strokeColor=#666666;fontColor=#666666;fontSize=17;verticalAlign=top;whiteSpace=wrap;fillColor=#ffffff;spacingTop=32;" vertex="1" parent="1">
          <mxGeometry x="4550" y="437.5" width="220" height="105" as="geometry" />
        </mxCell>
        <mxCell id="DWiZ_0gXpjANwphZb_NN-39" value="" style="verticalLabelPosition=bottom;shadow=0;dashed=0;align=center;html=1;verticalAlign=top;strokeWidth=1;shape=mxgraph.mockup.graphics.simpleIcon;strokeColor=#999999;" vertex="1" parent="DWiZ_0gXpjANwphZb_NN-38">
          <mxGeometry x="8.8" y="6.5625" width="202.4" height="32.8125" as="geometry" />
        </mxCell>
        <mxCell id="DWiZ_0gXpjANwphZb_NN-40" value="product name" style="text;html=1;strokeColor=none;fillColor=none;align=center;verticalAlign=middle;whiteSpace=wrap;rounded=0;" vertex="1" parent="DWiZ_0gXpjANwphZb_NN-38">
          <mxGeometry x="61.6" y="49.875" width="96.8" height="19.6875" as="geometry" />
        </mxCell>
        <mxCell id="DWiZ_0gXpjANwphZb_NN-41" value="price" style="text;html=1;strokeColor=none;fillColor=none;align=center;verticalAlign=middle;whiteSpace=wrap;rounded=0;" vertex="1" parent="DWiZ_0gXpjANwphZb_NN-38">
          <mxGeometry x="61.6" y="69.5625" width="96.8" height="19.6875" as="geometry" />
        </mxCell>
      </root>
    </mxGraphModel>
  </diagram>
</mxfile>
